<svg width="80" height="16" viewBox="0 0 80 16" fill="none" xmlns="http://www.w3.org/2000/svg">
<g clip-path="url(#clip0_9_3913)">
<path d="M19.9123 1.21729C19.4475 1.21729 19.0732 1.58909 19.0732 2.05113V12.2307C19.0732 12.6928 19.4475 13.0646 19.9123 13.0646H26.3513C26.4729 13.0646 26.5708 12.9673 26.5708 12.8464V11.6787C26.5708 11.5579 26.4729 11.4605 26.3513 11.4605H20.876V7.73778H25.7993C25.9209 7.73778 26.0187 7.64045 26.0187 7.51957V6.41614C26.0187 6.29526 25.9209 6.19798 25.7993 6.19798H20.876V2.78373H26.3513C26.4729 2.78373 26.5708 2.68645 26.5708 2.56557V1.43544C26.5708 1.31456 26.4729 1.21729 26.3513 1.21729H19.9123Z" fill="#FAFAFA"/>
<path d="M41.6494 4.18311C40.1173 4.18311 39.166 4.70761 38.529 5.57967V4.66858C38.529 4.5477 38.4311 4.45036 38.3095 4.45036H36.9837C36.8621 4.45036 36.7642 4.5477 36.7642 4.66858V15.7818C36.7642 15.9027 36.8621 16 36.9837 16H38.3324C38.454 16 38.5519 15.9027 38.5519 15.7818V11.9799C39.1429 12.8257 40.1005 13.3264 41.6494 13.3264C44.2543 13.3264 45.8763 11.2769 45.8763 8.75208C45.8763 6.22723 44.2878 4.18311 41.6494 4.18311ZM41.2711 5.65329C43.1452 5.65329 44.0672 7.04067 44.0672 8.75208C44.0672 10.4635 43.1452 11.8509 41.2711 11.8509C39.397 11.8509 38.475 10.4635 38.475 8.75208C38.475 7.04067 39.397 5.65329 41.2711 5.65329Z" fill="#FAFAFA"/>
<path d="M67.8113 4.4502H69.1448C69.2664 4.4502 69.3643 4.54751 69.3643 4.6684V12.8462C69.3643 12.9671 69.2664 13.0644 69.1448 13.0644H67.8113C67.6897 13.0644 67.5918 12.9671 67.5918 12.8462V4.6684C67.5918 4.54751 67.6897 4.4502 67.8113 4.4502Z" fill="#FAFAFA"/>
<path d="M67.7922 1.21289H69.164C69.2856 1.21289 69.3835 1.31021 69.3835 1.43109V2.79474C69.3835 2.91562 69.2856 3.01293 69.164 3.01293H67.7922C67.6706 3.01293 67.5727 2.91562 67.5727 2.79474V1.43109C67.5727 1.31021 67.6706 1.21289 67.7922 1.21289Z" fill="#FAFAFA"/>
<path d="M60.7965 13.3262C62.3285 13.3262 63.2799 12.8017 63.9169 11.9296V12.8461C63.9169 12.967 64.0148 13.0644 64.1364 13.0644H65.4622C65.5838 13.0644 65.6817 12.967 65.6817 12.8461V1.43526C65.6817 1.31438 65.5838 1.21704 65.4622 1.21704H64.1135C63.9919 1.21704 63.8939 1.31438 63.8939 1.43526V5.57776C63.2597 4.75349 62.3453 4.18287 60.7965 4.18288C58.1916 4.1829 56.5696 6.23237 56.5696 8.75722C56.5696 11.2821 58.158 13.3262 60.7965 13.3262ZM61.1748 11.856C59.3007 11.856 58.3787 10.4686 58.3787 8.75724C58.3787 7.04583 59.3007 5.65845 61.1748 5.65845C63.0488 5.65845 63.9709 7.04583 63.9709 8.75724C63.9709 10.4686 63.0488 11.856 61.1748 11.856Z" fill="#FAFAFA"/>
<path d="M75.1148 4.18848C72.4763 4.18848 70.8879 6.23259 70.8879 8.75744C70.8879 11.2823 72.4763 13.3264 75.1148 13.3264C76.6468 13.3264 77.5982 12.8019 78.2352 11.9298V12.8463C78.2352 12.9672 78.3331 13.0645 78.4547 13.0645H79.7805C79.9021 13.0645 80 12.9672 80 12.8463V8.75744V4.66854C80 4.54766 79.9021 4.45032 79.7805 4.45032H78.4547C78.3331 4.45032 78.2352 4.54766 78.2352 4.66854V5.58504C77.5982 4.71298 76.6468 4.18848 75.1148 4.18848ZM75.4931 5.65866C77.3671 5.65866 78.2892 7.04603 78.2892 8.75744C78.2892 10.4688 77.3671 11.8562 75.4931 11.8562C73.619 11.8562 72.697 10.4688 72.697 8.75744C72.697 7.04603 73.619 5.65866 75.4931 5.65866Z" fill="#FAFAFA"/>
<path d="M27.9907 4.4502C27.8012 4.4502 27.7673 4.59893 27.8533 4.71674L30.6754 8.55833L27.578 12.7978C27.4919 12.9156 27.5259 13.0644 27.7154 13.0644H29.2434C29.376 13.0644 29.4448 13.0194 29.4889 12.9548L31.5995 9.85862L33.7978 12.9548C33.8431 13.0186 33.9107 13.0644 34.0432 13.0644H35.6298C35.8193 13.0644 35.8536 12.9154 35.7672 12.7978L32.6519 8.55832L35.4563 4.71674C35.5423 4.59893 35.5084 4.4502 35.3189 4.4502H33.8208C33.6882 4.4502 33.6195 4.49521 33.5753 4.55975L31.7233 7.26549L29.81 4.55975C29.765 4.4958 29.6971 4.4502 29.5646 4.4502H27.9907Z" fill="#FAFAFA"/>
<path d="M51.227 4.18311C48.5738 4.18311 46.9769 6.07948 46.9769 8.75477C46.9769 11.7054 48.8645 13.3264 51.227 13.3264C54.082 13.3264 55.2074 11.6573 55.2703 11.5948C55.3427 11.5229 55.323 11.389 55.2622 11.3297L54.437 10.5255C54.3762 10.4662 54.2606 10.4571 54.1805 10.5374C54.1202 10.5978 53.1156 11.8601 51.4698 11.8601C49.7204 11.8601 48.8593 10.7947 48.7434 9.22525H55.2623C55.4644 9.22525 55.4754 9.04658 55.4759 8.9293C55.4895 5.74292 53.6267 4.18311 51.227 4.18311ZM51.2327 5.56967C52.8374 5.56967 53.5096 6.52884 53.6514 7.89513H48.8068C48.9972 6.55574 49.7049 5.56967 51.2327 5.56967Z" fill="#FAFAFA"/>
<path d="M11.4049 0.000244141C13.0573 0.000413615 14.3873 1.32252 14.3873 2.96509V11.3372C14.3871 12.9796 13.0572 14.3018 11.4049 14.302H2.98303C1.33062 14.302 -0.000117882 12.9797 -0.000366211 11.3372V2.96509C-0.000291744 1.32242 1.33051 0.000244141 2.98303 0.000244141H11.4049ZM4.02307 2.56079C3.88927 2.56083 3.80492 2.59098 3.73401 2.66138L2.29651 4.09106C2.26988 4.11753 2.2546 4.15325 2.25452 4.19067C2.25451 4.2688 2.3185 4.33227 2.39709 4.33228H8.62952L4.79749 8.14087C4.722 8.21591 4.67834 8.26019 4.67834 8.40747V9.40942C4.67839 9.46987 4.7061 9.52223 4.74573 9.56177C4.78557 9.60137 4.83898 9.62915 4.90002 9.62915H5.90784C6.05589 9.62915 6.10003 9.58592 6.17542 9.51099L10.0074 5.70142V11.8977C10.0077 11.9755 10.0707 12.0382 10.149 12.0383C10.1867 12.0383 10.223 12.0237 10.2496 11.9973L11.6881 10.5686C11.7591 10.498 11.7897 10.4138 11.7897 10.2805V3.51587C11.7897 3.39045 11.7647 3.26553 11.7164 3.14966C11.6682 3.03396 11.5975 2.92867 11.5084 2.84009C11.4193 2.7515 11.3133 2.68105 11.1969 2.63306C11.0803 2.58506 10.9549 2.56079 10.8287 2.56079H4.02307Z" fill="#FAFAFA"/>
<path d="M2.80225 9.90771H4.18516C4.30084 9.90771 4.39397 10.0003 4.39397 10.1153V11.4986C4.39397 11.6136 4.30084 11.7061 4.18516 11.7061H2.80225C2.68657 11.7061 2.59344 11.6136 2.59344 11.4986V10.1153C2.59344 10.0003 2.68657 9.90771 2.80225 9.90771Z" fill="#FAFAFA"/>
</g>
<defs>
<clipPath id="clip0_9_3913">
<rect width="80" height="16" fill="white"/>
</clipPath>
</defs>
</svg>
