<svg width="93" height="16" viewBox="0 0 93 16" fill="none" xmlns="http://www.w3.org/2000/svg">
<path d="M14.8113 13.0318V7.93493C14.8113 5.98524 13.6174 4.70854 11.5679 4.70854C10.5431 4.70854 9.42875 5.04503 8.66265 6.15348C8.06569 5.22317 7.21005 4.70854 5.92659 4.70854C5.07094 4.70854 4.2153 4.96586 3.53875 5.89617V4.87679H1.74786V13.0318H3.53875V8.52874C3.53875 7.08379 4.30484 6.40091 5.49876 6.40091C6.69269 6.40091 7.28965 7.16297 7.28965 8.52874V13.0318H9.08053V8.52874C9.08053 7.08379 9.93617 6.40091 11.0405 6.40091C12.2345 6.40091 12.8314 7.16297 12.8314 8.52874V13.0318H14.8113ZM41.3761 4.87679H38.4709V2.41245H36.68V4.87679H35.0583V6.48998H36.68V10.231C36.68 12.1015 37.4461 13.2001 39.4957 13.2001C40.2618 13.2001 41.1174 12.9428 41.7144 12.6063L41.197 11.0722C40.6796 11.4087 40.0827 11.4978 39.6548 11.4978C38.7992 11.4978 38.4609 10.9832 38.4609 10.1419V6.48998H41.3661V4.87679H41.3761ZM56.5787 4.69864C55.5539 4.69864 54.8674 5.21328 54.4396 5.88627V4.86689H52.6487V13.0219H54.4396V8.42977C54.4396 7.0739 55.0365 6.30194 56.1508 6.30194C56.4891 6.30194 56.9169 6.39101 57.2652 6.47019L57.7825 4.76792C57.4244 4.69864 56.9169 4.69864 56.5787 4.69864ZM33.6056 5.54977C32.75 4.95596 31.5561 4.69864 30.2726 4.69864C28.2231 4.69864 26.86 5.71802 26.86 7.33122C26.86 8.68709 27.8848 9.45905 29.6757 9.70648L30.5313 9.79554C31.4665 9.96379 31.9839 10.2211 31.9839 10.6467C31.9839 11.2405 31.2974 11.6661 30.1035 11.6661C28.9096 11.6661 27.9644 11.2405 27.3674 10.8149L26.5118 12.1708C27.447 12.8537 28.7305 13.1902 30.0139 13.1902C32.4018 13.1902 33.7748 12.0817 33.7748 10.5576C33.7748 9.11266 32.6605 8.3506 30.9591 8.09328L30.1035 8.00421C29.3374 7.91513 28.7404 7.74689 28.7404 7.24214C28.7404 6.64833 29.3374 6.31184 30.2826 6.31184C31.3074 6.31184 32.3321 6.7374 32.8495 6.99472L33.6056 5.54977ZM81.253 4.69864C80.2282 4.69864 79.5417 5.21328 79.1139 5.88627V4.86689H77.323V13.0219H79.1139V8.42977C79.1139 7.0739 79.7109 6.30194 80.8252 6.30194C81.1635 6.30194 81.5913 6.39101 81.9395 6.47019L82.4569 4.78771C82.1087 4.69864 81.6013 4.69864 81.253 4.69864ZM58.3696 8.95431C58.3696 11.4186 60.0808 13.2001 62.7274 13.2001C63.9213 13.2001 64.7769 12.9428 65.6326 12.2698L64.7769 10.8248C64.0904 11.3395 63.4139 11.5869 62.6378 11.5869C61.1852 11.5869 60.1604 10.5675 60.1604 8.95431C60.1604 7.42029 61.1852 6.40091 62.6378 6.32173C63.4039 6.32173 64.0904 6.57905 64.7769 7.0838L65.6326 5.63884C64.7769 4.95596 63.9213 4.70854 62.7274 4.70854C60.0808 4.69864 58.3696 6.48998 58.3696 8.95431ZM74.9352 8.95431V4.87679H73.1443V5.89617C72.5474 5.1341 71.6917 4.70854 70.5774 4.70854C68.2691 4.70854 66.4783 6.48998 66.4783 8.95431C66.4783 11.4186 68.2691 13.2001 70.5774 13.2001C71.7713 13.2001 72.627 12.7745 73.1443 12.0125V13.0318H74.9352V8.95431ZM68.3587 8.95431C68.3587 7.50936 69.2939 6.32173 70.8361 6.32173C72.2887 6.32173 73.3135 7.43018 73.3135 8.95431C73.3135 10.3993 72.2887 11.5869 70.8361 11.5869C69.3039 11.4978 68.3587 10.3894 68.3587 8.95431ZM46.9278 4.69864C44.54 4.69864 42.8287 6.40091 42.8287 8.94441C42.8287 11.4978 44.54 13.1902 47.0174 13.1902C48.2113 13.1902 49.4052 12.8537 50.3504 12.0817L49.4947 10.805C48.8082 11.3197 47.9526 11.6562 47.1069 11.6562C45.9926 11.6562 44.8882 11.1415 44.6295 9.70648H50.6887C50.6887 9.44916 50.6887 9.28091 50.6887 9.02359C50.7683 6.40091 49.2261 4.69864 46.9278 4.69864ZM46.9278 6.23266C48.0421 6.23266 48.8082 6.91555 48.9774 8.18235H44.7091C44.8782 7.08379 45.6443 6.23266 46.9278 6.23266ZM91.4212 8.95431V1.65039H89.6304V5.89617C89.0334 5.1341 88.1778 4.70854 87.0634 4.70854C84.7552 4.70854 82.9643 6.48998 82.9643 8.95431C82.9643 11.4186 84.7552 13.2001 87.0634 13.2001C88.2574 13.2001 89.113 12.7745 89.6304 12.0125V13.0318H91.4212V8.95431ZM84.8447 8.95431C84.8447 7.50936 85.78 6.32173 87.3221 6.32173C88.7747 6.32173 89.7995 7.43018 89.7995 8.95431C89.7995 10.3993 88.7747 11.5869 87.3221 11.5869C85.78 11.4978 84.8447 10.3894 84.8447 8.95431ZM24.89 8.95431V4.87679H23.0991V5.89617C22.5022 5.1341 21.6465 4.70854 20.5322 4.70854C18.224 4.70854 16.4331 6.48998 16.4331 8.95431C16.4331 11.4186 18.224 13.2001 20.5322 13.2001C21.7261 13.2001 22.5818 12.7745 23.0991 12.0125V13.0318H24.89V8.95431ZM18.2339 8.95431C18.2339 7.50936 19.1692 6.32173 20.7113 6.32173C22.1639 6.32173 23.1887 7.43018 23.1887 8.95431C23.1887 10.3993 22.1639 11.5869 20.7113 11.5869C19.1692 11.4978 18.2339 10.3894 18.2339 8.95431Z" fill="#FAFAFA"/>
</svg>
