<svg width="39" height="16" viewBox="0 0 39 16" fill="none" xmlns="http://www.w3.org/2000/svg">
<g clip-path="url(#clip0_9_3861)">
<path fill-rule="evenodd" clip-rule="evenodd" d="M38.9978 8.26482C38.9978 5.53124 37.6546 3.37427 35.0872 3.37427C32.509 3.37427 30.9491 5.53124 30.9491 8.24346C30.9491 11.4576 32.7907 13.0806 35.4339 13.0806C36.723 13.0806 37.6979 12.7923 38.4345 12.3865V10.2509C37.6979 10.614 36.853 10.8382 35.7805 10.8382C34.7297 10.8382 33.7981 10.4752 33.679 9.21517H38.9762C38.9762 9.07635 38.9978 8.52109 38.9978 8.26482ZM33.6465 7.2504C33.6465 6.04378 34.3939 5.54191 35.0764 5.54191C35.7372 5.54191 36.4413 6.04378 36.4413 7.2504H33.6465Z" fill="#FAFAFA"/>
<path fill-rule="evenodd" clip-rule="evenodd" d="M26.7677 3.37427C25.7061 3.37427 25.0236 3.86546 24.6445 4.20716L24.5037 3.54512H22.1205V15.9957L24.8286 15.4298L24.8395 12.4079C25.2294 12.6855 25.8036 13.0806 26.7569 13.0806C28.6959 13.0806 30.4617 11.543 30.4617 8.15804C30.4508 5.0614 28.6634 3.37427 26.7677 3.37427ZM26.1177 10.7314C25.4786 10.7314 25.0995 10.5072 24.8395 10.2296L24.8286 6.26802C25.1103 5.95836 25.5003 5.7448 26.1177 5.7448C27.1035 5.7448 27.786 6.83396 27.786 8.23278C27.786 9.66364 27.1143 10.7314 26.1177 10.7314Z" fill="#FAFAFA"/>
<path fill-rule="evenodd" clip-rule="evenodd" d="M18.394 2.74426L21.113 2.16765V0L18.394 0.565937V2.74426Z" fill="#FAFAFA"/>
<path d="M21.113 3.55591H18.394V12.8992H21.113V3.55591Z" fill="#FAFAFA"/>
<path fill-rule="evenodd" clip-rule="evenodd" d="M15.48 4.34586L15.3066 3.55569H12.9668V12.899H15.6749V6.5669C16.3141 5.74469 17.3974 5.89418 17.7332 6.01164V3.55569C17.3865 3.42755 16.1191 3.19263 15.48 4.34586Z" fill="#FAFAFA"/>
<path fill-rule="evenodd" clip-rule="evenodd" d="M10.0636 1.23877L7.42041 1.79403L7.40958 10.3472C7.40958 11.9275 8.61201 13.0914 10.2153 13.0914C11.1035 13.0914 11.7535 12.9312 12.111 12.739V10.5714C11.7643 10.7102 10.0528 11.2014 10.0528 9.62104V5.83033H12.111V3.55591H10.0528L10.0636 1.23877Z" fill="#FAFAFA"/>
<path fill-rule="evenodd" clip-rule="evenodd" d="M2.74068 6.26802C2.74068 5.85158 3.08733 5.69141 3.66146 5.69141C4.48475 5.69141 5.52469 5.937 6.34798 6.3748V3.86546C5.44886 3.51308 4.56058 3.37427 3.66146 3.37427C1.46242 3.37427 0 4.50614 0 6.39616C0 9.3433 4.11644 8.87347 4.11644 10.1442C4.11644 10.6353 3.68313 10.7955 3.0765 10.7955C2.17738 10.7955 1.02911 10.4325 0.11916 9.94127V12.4826C1.1266 12.9098 2.14488 13.0913 3.0765 13.0913C5.3297 13.0913 6.87878 11.9915 6.87878 10.0801C6.86795 6.89803 2.74068 7.46396 2.74068 6.26802Z" fill="#FAFAFA"/>
</g>
<defs>
<clipPath id="clip0_9_3861">
<rect width="39" height="16" fill="white"/>
</clipPath>
</defs>
</svg>
