<svg width="97" height="16" viewBox="0 0 97 16" fill="none" xmlns="http://www.w3.org/2000/svg">
<g clip-path="url(#clip0_9_3871)">
<path d="M38.2844 2.29502H28.4604V4.46301H32.0875V13.7049H34.6612V4.46301H38.2883V2.29502M47.8924 9.831C47.6943 10.3292 47.372 10.7686 46.956 11.1076C46.54 11.4466 46.0442 11.6739 45.5155 11.7679C45.3193 11.803 45.1205 11.821 44.9212 11.8219C44.7167 11.8219 44.5161 11.8026 44.3232 11.7679C43.7949 11.674 43.2995 11.4466 42.8841 11.1076C42.4687 10.7686 42.1472 10.3291 41.9501 9.831C41.7203 9.24713 41.6025 8.62534 41.6028 7.99803C41.603 7.37202 41.7208 6.75158 41.9501 6.16891C42.147 5.6703 42.4684 5.23024 42.8837 4.89054C43.2991 4.55084 43.7946 4.32281 44.3232 4.22812C44.7185 4.15512 45.124 4.15512 45.5193 4.22812C46.0475 4.32245 46.5427 4.5499 46.958 4.8889C47.3733 5.22789 47.695 5.66717 47.8924 6.16506C48.353 7.3438 48.353 8.65226 47.8924 9.831ZM44.9212 1.9523C43.314 1.9523 41.7727 2.58947 40.6362 3.72362C39.4997 4.85778 38.8613 6.39602 38.8613 7.99996C38.8613 9.60389 39.4997 11.1421 40.6362 12.2763C41.7727 13.4104 43.314 14.0476 44.9212 14.0476C46.5284 14.0476 48.0698 13.4104 49.2063 12.2763C50.3427 11.1421 50.9812 9.60389 50.9812 7.99996C50.9812 6.39602 50.3427 4.85778 49.2063 3.72362C48.0698 2.58947 46.5284 1.9523 44.9212 1.9523ZM51.0179 2.29887H54.0507L56.8791 7.20092L59.7075 2.29502H62.7365L58.164 9.48443V13.7049H55.5942V9.48443L51.0179 2.29502M68.8447 11.8219C69.0453 11.8219 69.246 11.8026 69.4389 11.7679C69.9672 11.674 70.4626 11.4466 70.878 11.1076C71.2933 10.7686 71.6149 10.3291 71.812 9.831C72.2754 8.65412 72.2754 7.3458 71.812 6.16891C71.6149 5.67082 71.2933 5.23135 70.878 4.89231C70.4626 4.55328 69.9672 4.32595 69.4389 4.23197C69.0433 4.16116 68.6383 4.16116 68.2427 4.23197C67.7152 4.32656 67.2206 4.55416 66.8059 4.89316C66.3912 5.23216 66.0703 5.67131 65.8735 6.16891C65.6441 6.75156 65.5263 7.37201 65.5263 7.99803C65.5263 8.64496 65.6497 9.26494 65.8735 9.831C66.0703 10.3293 66.3918 10.769 66.8072 11.108C67.2226 11.4471 67.7182 11.6743 68.2466 11.7679C68.444 11.8034 68.6441 11.8215 68.8447 11.8219ZM62.7867 7.99803C62.7867 6.39461 63.4249 4.85685 64.561 3.72306C65.6971 2.58926 67.238 1.9523 68.8447 1.9523C70.4514 1.9523 71.9923 2.58926 73.1284 3.72306C74.2645 4.85685 74.9027 6.39461 74.9027 7.99803C74.9027 9.60146 74.2645 11.1392 73.1284 12.273C71.9923 13.4068 70.4514 14.0438 68.8447 14.0438C67.238 14.0438 65.6971 13.4068 64.561 12.273C63.4249 11.1392 62.7867 9.60146 62.7867 7.99803ZM92.4479 9.19177L90.7655 4.68251L89.0793 9.18792H92.4479M93.1926 11.1865H88.3307L87.3931 13.6972H84.53L89.1603 2.28732H92.363L96.9933 13.6972H94.1379L93.1926 11.1865ZM85.2863 2.29502H75.4622V4.46301H79.0893V13.7049H81.663V4.46301H85.2824V2.29502M17.9649 0.785517C16.1741 0.24369 14.3106 -0.0212342 12.4394 -4.30933e-05C10.5681 -0.0212342 8.70469 0.24369 6.91383 0.785517C2.82369 2.09863 0.00689697 4.82499 0.00689697 7.96723C0.00689697 12.3918 5.56331 16 12.4394 16C19.3 16 24.8718 12.4072 24.8718 7.96723C24.8718 4.82499 22.0628 2.09863 17.9649 0.785517ZM12.4394 12.5535C11.413 12.5535 10.5757 10.5511 10.5294 8.01343C11.139 8.0789 11.7795 8.0943 12.4394 8.0943C13.0953 8.0943 13.7397 8.0635 14.3532 8.01729C14.3031 10.5472 13.4658 12.5535 12.4394 12.5535ZM10.6567 6.04569C10.9268 4.26277 11.6213 3.01512 12.4394 3.01512C13.242 3.01512 13.9327 4.26277 14.2221 6.04183C13.036 6.14765 11.843 6.14894 10.6567 6.04569ZM15.314 5.89936C14.8973 3.12679 13.7706 1.12439 12.4394 1.12439C11.1081 1.12439 9.98143 3.11139 9.5647 5.89936C7.04116 5.49887 5.27391 4.61705 5.27391 3.57348C5.27391 2.1641 8.48815 1.02427 12.4394 1.02427C16.3906 1.02427 19.6087 2.1641 19.6087 3.57348C19.6087 4.61319 17.8414 5.51428 15.3179 5.89936H15.314ZM1.82045 7.67842C1.82045 6.31524 2.35294 5.04833 3.26743 3.94316C3.252 4.02017 3.252 4.10489 3.252 4.1665C3.252 5.88395 5.82184 7.32415 9.40264 7.87096V8.25603C9.40264 11.4291 10.2901 14.1246 11.5094 15.0527C6.08037 14.7331 1.82431 11.5562 1.82431 7.67842H1.82045ZM13.3732 15.0719C14.5925 14.14 15.4761 11.4445 15.4761 8.27144V7.88636C19.0569 7.3588 21.6267 5.89936 21.6267 4.18576C21.6267 4.10489 21.6267 4.02402 21.6113 3.95856C22.5228 4.99268 23.0357 6.31676 23.0583 7.69382C23.0583 11.5562 18.8022 14.7331 13.3732 15.0681V15.0719Z" fill="#FAFAFA"/>
</g>
<defs>
<clipPath id="clip0_9_3871">
<rect width="97" height="16" fill="white"/>
</clipPath>
</defs>
</svg>
