<svg width="46" height="16" viewBox="0 0 46 16" fill="none" xmlns="http://www.w3.org/2000/svg">
<path d="M2.64653 11.427C2.84093 11.9439 3.11006 12.3858 3.45397 12.7528C3.79789 13.1199 4.20533 13.4008 4.6763 13.5956C5.14731 13.7903 5.65942 13.8877 6.21267 13.8877C6.75098 13.8877 7.25559 13.7865 7.7266 13.5843C8.19762 13.382 8.60878 13.0974 8.96014 12.7304C9.31151 12.3633 9.58441 11.9251 9.7788 11.4158C9.97319 10.9064 10.0704 10.3371 10.0704 9.70789V0H12.4253V15.7303H10.0928V14.2697C9.56947 14.8239 8.95265 15.2509 8.24243 15.5506C7.53216 15.8502 6.76591 16 5.94354 16C5.10617 16 4.32494 15.8539 3.59973 15.5618C2.87457 15.2697 2.24654 14.854 1.71577 14.3146C1.18501 13.7753 0.766298 13.1274 0.459799 12.3708C0.15325 11.6143 0 10.7716 0 9.84269V0H2.35497V9.70789C2.35497 10.3371 2.45214 10.9101 2.64653 11.427Z" fill="#FAFAFA"/>
<path d="M16.4847 0V5.73033C17.008 5.20599 17.6136 4.7903 18.3014 4.48315C18.9892 4.17601 19.7368 4.02246 20.5442 4.02246C21.3816 4.02246 22.1665 4.17974 22.8992 4.49434C23.6318 4.80895 24.2673 5.23592 24.8056 5.77528C25.3439 6.31463 25.77 6.9513 26.084 7.68537C26.398 8.4195 26.555 9.19852 26.555 10.0225C26.555 10.8464 26.398 11.6217 26.084 12.3483C25.77 13.0749 25.3439 13.7079 24.8056 14.2471C24.2673 14.7865 23.6318 15.2135 22.8992 15.5281C22.1665 15.8427 21.3815 15.9999 20.5442 15.9999C19.7368 15.9999 18.9855 15.8464 18.2902 15.5393C17.5949 15.2322 16.9856 14.8164 16.4623 14.2921V15.7303H14.2194V0H16.4847ZM16.7426 11.573C16.9444 12.0525 17.2248 12.4719 17.5837 12.8315C17.9425 13.191 18.3612 13.4757 18.8397 13.6855C19.3182 13.8952 19.834 14.0001 20.3872 14.0001C20.9255 14.0001 21.4339 13.8952 21.9123 13.6855C22.3908 13.4757 22.8057 13.1911 23.1571 12.8315C23.5085 12.472 23.7889 12.0525 23.9982 11.573C24.2075 11.0936 24.3122 10.5768 24.3122 10.0225C24.3122 9.46817 24.2075 8.94756 23.9982 8.46067C23.7889 7.97377 23.5085 7.55057 23.1571 7.19102C22.8057 6.83151 22.3909 6.55057 21.9123 6.34835C21.4338 6.14612 20.9255 6.04493 20.3872 6.04493C19.849 6.04493 19.3406 6.14607 18.8621 6.34835C18.3837 6.55062 17.965 6.83151 17.6061 7.19102C17.2473 7.55057 16.9632 7.97377 16.7539 8.46067C16.5445 8.94756 16.4399 9.46817 16.4399 10.0225C16.4398 10.5768 16.5408 11.0936 16.7426 11.573Z" fill="#FAFAFA"/>
<path d="M27.8332 7.70803C28.1322 6.98892 28.5434 6.35598 29.0667 5.80917C29.59 5.26236 30.2106 4.83165 30.9283 4.51705C31.646 4.20244 32.4235 4.04517 33.2608 4.04517C34.0832 4.04517 34.8458 4.19498 35.5485 4.49457C36.2513 4.79421 36.8568 5.20995 37.3652 5.74179C37.8736 6.27359 38.2699 6.90285 38.5539 7.62941C38.838 8.35603 38.98 9.14629 38.98 10.0002V10.7418H29.6723C29.7471 11.2062 29.8966 11.637 30.1209 12.0339C30.3452 12.4309 30.6255 12.7755 30.9619 13.0676C31.2983 13.3598 31.6796 13.5883 32.1058 13.753C32.5319 13.9178 32.9842 14.0002 33.4627 14.0002C34.8234 14.0002 35.9224 13.4384 36.7597 12.3148L38.397 13.5283C37.8288 14.2923 37.1261 14.8916 36.2887 15.326C35.4514 15.7605 34.5094 15.9777 33.4628 15.9777C32.6104 15.9777 31.8143 15.8278 31.0741 15.5282C30.334 15.2287 29.6911 14.8091 29.1453 14.2698C28.5996 13.7304 28.1697 13.0975 27.8557 12.3709C27.5417 11.6444 27.3847 10.8541 27.3847 10.0001C27.3846 9.19119 27.5342 8.42713 27.8332 7.70803ZM30.9844 6.82035C30.3489 7.3522 29.9265 8.06007 29.7172 8.94396H36.6924C36.498 8.06007 36.0831 7.3522 35.4476 6.82035C34.8121 6.28856 34.0683 6.02263 33.216 6.02263C32.3637 6.02263 31.6198 6.28856 30.9844 6.82035Z" fill="#FAFAFA"/>
<path d="M43.2189 7.07859C42.7404 7.60293 42.5012 8.31453 42.5012 9.21343V15.7303H40.2359V4.26964H42.4787V5.68538C42.7628 5.22095 43.1329 4.85389 43.5889 4.58424C44.0449 4.31454 44.587 4.17969 45.215 4.17969H46V6.29206H45.058C44.3104 6.29211 43.6973 6.55425 43.2189 7.07859Z" fill="#FAFAFA"/>
</svg>
