<svg width="67" height="16" viewBox="0 0 67 16" fill="none" xmlns="http://www.w3.org/2000/svg">
<g clip-path="url(#clip0_9_3886)">
<mask id="mask0_9_3886" style="mask-type:luminance" maskUnits="userSpaceOnUse" x="0" y="-1" width="67" height="20">
<path d="M0 18.843H67V-0.0490608H0" fill="white"/>
</mask>
<g mask="url(#mask0_9_3886)">
<path d="M9.91969 3.3271L8.70782 9.36313L7.34694 3.3271H4.98466L3.62382 9.36313L2.41191 3.3271H0L1.96644 12.5474H4.77419L6.14691 6.42497L7.52038 12.5474H10.2658L12.2204 3.3271H9.91969Z" fill="#FAFAFA"/>
<path d="M15.1704 5.02403C13.674 5.02403 12.6222 5.52804 12.239 5.88458V7.85127C12.6844 7.45784 13.6243 6.88015 14.8614 6.88015C15.6285 6.88015 15.9124 7.08943 15.9124 7.51964C15.9124 7.88898 15.5166 8.03634 14.4159 8.26972C12.7459 8.61403 11.7816 9.21663 11.7816 10.6549C11.7816 11.9825 12.66 12.7566 13.9341 12.7566C15.0007 12.7566 15.6382 12.2645 15.9873 11.6037V12.5473H18.288V8.0232C18.288 5.94546 17.1999 5.02311 15.1712 5.02311M14.8487 11.2693C14.3047 11.2693 14.0075 10.9368 14.0075 10.4825C14.0075 9.89211 14.4774 9.65872 15.0712 9.44956C15.381 9.33379 15.6901 9.21387 15.8998 9.03156V10.0522C15.8998 10.8262 15.4914 11.2693 14.8487 11.2693Z" fill="#FAFAFA"/>
<path d="M19.1478 12.5474H21.5353V3.3271H19.1478" fill="#FAFAFA"/>
<path d="M31.1155 5.04819C29.957 5.04819 29.2091 5.74015 28.8177 6.66158C28.6079 5.67442 27.9097 5.04819 26.935 5.04819C25.8306 5.04819 25.1102 5.68861 24.7455 6.58789V5.25747H22.3951V12.5474H24.7825V8.50259C24.7825 7.50655 25.1168 6.94166 25.8336 6.94166C26.4147 6.94166 26.6126 7.33509 26.6126 7.94957V12.5474H29V8.50259C29 7.50655 29.3343 6.94166 30.0511 6.94166C30.6322 6.94166 30.8301 7.33509 30.8301 7.94957V12.5474H33.2176V7.61794C33.2176 6.08112 32.4875 5.04819 31.1147 5.04819" fill="#FAFAFA"/>
<path d="M37.1267 5.02403C35.6302 5.02403 34.5785 5.52804 34.1953 5.88458V7.85127C34.6407 7.45784 35.5806 6.88015 36.8177 6.88015C37.5848 6.88015 37.8687 7.08943 37.8687 7.51964C37.8687 7.88898 37.4729 8.03634 36.3722 8.26972C34.7022 8.61403 33.7379 9.21663 33.7379 10.6549C33.7379 11.9825 34.6163 12.7566 35.8904 12.7566C36.957 12.7566 37.5945 12.2645 37.9436 11.6037V12.5473H40.2443V8.0232C40.2443 5.94546 39.1562 5.02311 37.1275 5.02311M36.805 11.2693C36.261 11.2693 35.9638 10.9368 35.9638 10.4825C35.9638 9.89211 36.4337 9.65872 37.0274 9.44956C37.3373 9.33379 37.6464 9.21387 37.8561 9.03156V10.0522C37.8561 10.8262 37.4477 11.2693 36.805 11.2693Z" fill="#FAFAFA"/>
<path d="M43.3982 7.3171V5.25747H41.0604V12.5474H43.4479V9.44961C43.4479 8.02325 44.3381 7.64204 45.192 7.64204C45.4766 7.64204 45.7486 7.67894 45.8724 7.71572V5.20835C44.5293 5.14412 43.7132 5.9966 43.399 7.31664" fill="#FAFAFA"/>
<path d="M50.4234 7.1011V5.25732H48.9017V3.84364H46.5143V10.1131C46.5143 11.8709 47.5164 12.6946 49.1115 12.6946C49.8534 12.6946 50.2492 12.5472 50.4227 12.4368V10.6052C50.2863 10.7034 50.064 10.7776 49.7793 10.7776C49.2471 10.7903 48.901 10.5565 48.901 9.78144V7.1011H50.4227" fill="#FAFAFA"/>
</g>
<path d="M62.7996 7.28922C63.1353 7.22072 66.1032 5.86897 66.3678 5.71687C66.9726 5.37026 67.1801 4.60081 66.8303 3.99959C66.4812 3.39884 65.7073 3.19243 65.1025 3.54009C64.8379 3.6916 62.1762 5.57135 61.9486 5.82549C61.6877 6.11688 61.6425 6.53395 61.8359 6.8665C62.0287 7.19847 62.4149 7.36809 62.7996 7.28922Z" fill="#FAFAFA"/>
<path d="M66.3677 10.2818C66.1031 10.1301 63.1345 8.77837 62.7995 8.70987C62.4148 8.631 62.0294 8.80108 61.8359 9.13259C61.6432 9.46514 61.6884 9.88163 61.9486 10.1736C62.1762 10.4276 64.8379 12.3069 65.1025 12.459C65.7073 12.8062 66.4804 12.6003 66.8302 11.999C67.1794 11.3983 66.9726 10.6299 66.3677 10.2818Z" fill="#FAFAFA"/>
<path d="M59.8613 10.2657C59.4759 10.2657 59.1349 10.5132 59.0112 10.883C58.9029 11.2065 58.5968 14.437 58.5968 14.7407C58.5968 15.4345 59.1631 15.9976 59.8613 15.9976C60.5595 15.9976 61.1258 15.4345 61.1258 14.7407C61.1258 14.4365 60.8197 11.2056 60.7115 10.883C60.5877 10.5127 60.2467 10.2657 59.8613 10.2657Z" fill="#FAFAFA"/>
<path d="M56.9224 8.70991C56.5866 8.7784 53.6188 10.1302 53.3542 10.2818C52.7494 10.6289 52.5418 11.3983 52.8917 11.9991C53.2408 12.6003 54.0146 12.8067 54.6195 12.459C54.8841 12.3069 57.5458 10.4277 57.7734 10.1736C58.0343 9.88167 58.0795 9.46518 57.886 9.13263C57.6933 8.80066 57.3071 8.63104 56.9224 8.70991Z" fill="#FAFAFA"/>
<path d="M54.6187 3.53895C54.0139 3.19233 53.2408 3.39781 52.8909 3.99903C52.5418 4.60025 52.7486 5.36866 53.3535 5.71631C53.6181 5.86794 56.5866 7.22016 56.9217 7.28854C57.3064 7.36741 57.6918 7.19698 57.8852 6.86536C58.078 6.53339 58.0327 6.11632 57.7726 5.82447C57.545 5.57033 54.8833 3.69104 54.6187 3.53895Z" fill="#FAFAFA"/>
<path d="M59.8613 8.34645e-05C59.1631 8.34645e-05 58.5968 0.563018 58.5968 1.25683C58.5968 1.56101 58.9029 4.7916 59.0112 5.11411C59.1349 5.48494 59.4759 5.73193 59.8613 5.73193C60.2467 5.73193 60.5877 5.48448 60.7115 5.11411C60.8197 4.79113 61.1258 1.56055 61.1258 1.25683C61.1258 0.563018 60.5595 8.34645e-05 59.8613 8.34645e-05Z" fill="#FAFAFA"/>
</g>
<defs>
<clipPath id="clip0_9_3886">
<rect width="67" height="16" fill="white"/>
</clipPath>
</defs>
</svg>
